<?xml version="1.0" standalone="no"?>
<!DOCTYPE svg PUBLIC "-//W3C//DTD SVG 20010904//EN"
 "http://www.w3.org/TR/2001/REC-SVG-20010904/DTD/svg10.dtd">
<svg version="1.0" xmlns="http://www.w3.org/2000/svg"
 width="320.000000pt" height="132.000000pt" viewBox="0 0 320.000000 132.000000"
 preserveAspectRatio="xMidYMid meet">
<metadata>
Created by potrace 1.13, written by Peter Selinger 2001-2015
</metadata>
<g transform="translate(0.000000,132.000000) scale(0.100000,-0.100000)"
fill="#000000" stroke="none">
<path d="M25 907 c-3 -7 -4 -118 -3 -247 l3 -235 265 0 265 0 0 245 0 245
-263 3 c-207 2 -264 0 -267 -11z m340 -58 c78 -22 114 -66 115 -142 0 -84 -46
-154 -131 -197 -47 -25 -137 -26 -185 -4 -95 45 -99 192 -7 275 49 44 63 52
111 65 59 16 50 16 97 3z"/>
<path d="M690 790 c0 -27 -5 -43 -15 -46 -8 -4 -15 -12 -15 -20 0 -8 7 -14 15
-14 12 0 15 -15 15 -76 0 -70 2 -78 29 -105 35 -34 71 -39 71 -9 0 11 -7 20
-15 20 -28 0 -46 45 -43 107 3 55 4 58 31 61 15 2 27 9 27 17 0 8 -12 15 -27
17 -25 3 -28 7 -31 46 -3 34 -7 42 -23 42 -16 0 -19 -7 -19 -40z"/>
<path d="M830 670 c0 -153 1 -160 20 -160 18 0 20 7 20 83 0 95 13 117 68 117
47 0 62 -29 62 -122 0 -71 2 -78 20 -78 19 0 20 7 20 91 0 87 -1 92 -29 120
-31 31 -83 39 -122 19 -18 -10 -19 -7 -19 40 0 43 -3 50 -20 50 -19 0 -20 -7
-20 -160z"/>
<path d="M2290 670 l0 -160 35 0 c34 0 35 1 35 39 0 59 25 61 58 6 25 -41 30
-44 70 -45 32 0 41 3 35 13 -4 7 -26 38 -47 70 l-39 58 41 42 c23 24 42 46 42
50 0 4 -17 7 -37 7 -30 0 -45 -8 -80 -42 l-43 -42 0 82 0 82 -35 0 -35 0 0
-160z"/>
<path d="M2540 711 c0 -65 5 -132 11 -150 12 -33 52 -61 89 -61 30 0 28 52 -2
65 -19 8 -23 19 -26 68 -3 55 -2 57 23 57 21 0 25 5 25 30 0 25 -4 30 -25 30
-22 0 -25 4 -25 40 0 39 -1 40 -35 40 l-35 0 0 -119z"/>
<path d="M3090 670 l0 -160 30 0 30 0 0 160 0 160 -30 0 -30 0 0 -160z"/>
<path d="M1128 735 c-36 -20 -58 -64 -58 -116 0 -33 6 -47 33 -74 58 -58 137
-59 190 -2 29 31 29 32 8 35 -11 2 -33 -6 -47 -17 -30 -23 -61 -26 -97 -10
-21 9 -47 46 -47 64 0 3 47 5 105 5 l105 0 0 25 c0 15 -14 41 -33 61 -28 31
-41 37 -83 40 -32 3 -58 -1 -76 -11z"/>
<path d="M1505 740 c-65 -27 -93 -117 -55 -178 42 -67 144 -80 201 -26 16 15
29 34 29 41 0 18 -64 17 -80 -2 -28 -34 -100 -1 -100 46 0 60 46 86 102 58 41
-21 78 -25 78 -8 0 57 -104 99 -175 69z"/>
<path d="M1785 741 c-44 -20 -70 -60 -70 -111 0 -117 129 -170 218 -90 29 25
32 34 32 84 0 49 -4 59 -32 87 -25 25 -41 32 -80 35 -26 2 -57 0 -68 -5z"/>
<path d="M2064 734 c-66 -32 -86 -127 -38 -183 54 -64 150 -66 205 -3 l33 37
-38 3 c-24 2 -44 -2 -55 -12 -41 -37 -101 -7 -101 51 0 54 61 82 106 48 22
-17 60 -20 69 -5 10 15 -13 49 -45 65 -37 19 -96 19 -136 -1z"/>
<path d="M2709 711 c-32 -32 -39 -46 -39 -77 0 -80 69 -143 139 -129 20 4 57
6 84 6 l47 -2 0 120 0 121 -34 0 c-19 0 -36 -5 -38 -11 -3 -9 -9 -9 -25 0 -12
6 -38 11 -59 11 -29 0 -44 -8 -75 -39z"/>
<path d="M2974 737 c-2 -7 -3 -60 -2 -118 l3 -104 33 -3 32 -3 0 120 0 121
-30 0 c-17 0 -33 -6 -36 -13z"/>
</g>
</svg>
